<svg width="137" height="57" viewBox="0 0 137 57" fill="none" xmlns="http://www.w3.org/2000/svg">
<path d="M118.522 26.4258L107.384 26.1445L107.237 32.777L111.299 40.8194L115.173 40.9172" stroke="#3D3D3D" stroke-width="2" stroke-miterlimit="10" stroke-linecap="round" stroke-linejoin="round"/>
<path d="M2.01794 23.7377L101.976 26.2294" stroke="#3D3D3D" stroke-width="2" stroke-miterlimit="10" stroke-linecap="round" stroke-linejoin="round"/>
<path d="M125.963 41.1539L135.444 41.3941L135.764 26.8607L118.373 26.42L118.09 39.2402" stroke="#3D3D3D" stroke-width="2" stroke-miterlimit="10" stroke-linecap="round" stroke-linejoin="round"/>
<path d="M133.732 21.4125C131.829 16.5216 127.174 13.2475 121.934 13.1148L118.698 13.0328L118.407 26.26L135.79 26.7004L133.732 21.4125Z" stroke="#3D3D3D" stroke-width="2" stroke-miterlimit="10" stroke-linecap="round" stroke-linejoin="round"/>
<path d="M135.374 41.5072L135.282 45.7079L132.604 49.1328L128.189 49.0211" stroke="#3D3D3D" stroke-width="2" stroke-miterlimit="10" stroke-linecap="round" stroke-linejoin="round"/>
<path d="M120.191 55.0658C124.698 55.1799 128.429 51.6986 128.527 47.29C128.624 42.8815 125.05 39.2152 120.543 39.101C116.037 38.9869 112.305 42.4682 112.208 46.8768C112.111 51.2853 115.685 54.9517 120.191 55.0658Z" stroke="#3D3D3D" stroke-width="2" stroke-miterlimit="10"/>
<path d="M120.291 50.5714C122.26 50.6213 123.891 49.0998 123.933 47.1731C123.976 45.2464 122.414 43.6441 120.445 43.5942C118.475 43.5443 116.844 45.0658 116.802 46.9925C116.759 48.9192 118.321 50.5215 120.291 50.5714Z" stroke="#3D3D3D" stroke-width="2" stroke-miterlimit="10"/>
<path d="M78.6816 54.0697C83.1877 54.1838 86.9195 50.7025 87.0166 46.2939C87.1138 41.8854 83.5396 38.2191 79.0335 38.1049C74.5273 37.9908 70.7956 41.4721 70.6984 45.8807C70.6012 50.2892 74.1754 53.9556 78.6816 54.0697Z" stroke="#3D3D3D" stroke-width="2" stroke-miterlimit="10"/>
<path d="M78.7815 49.576C80.7509 49.6259 82.3818 48.1044 82.4243 46.1777C82.4667 44.251 80.9047 42.6487 78.9353 42.5988C76.966 42.549 75.3351 44.0704 75.2926 45.9971C75.2501 47.9238 76.8122 49.5262 78.7815 49.576Z" stroke="#3D3D3D" stroke-width="2" stroke-miterlimit="10"/>
<path d="M17.5543 52.6042C22.0604 52.7184 25.7921 49.237 25.8893 44.8285C25.9865 40.4199 22.4123 36.7536 17.9062 36.6395C13.4 36.5254 9.66829 40.0067 9.57111 44.4152C9.47393 48.8238 13.0481 52.4901 17.5543 52.6042Z" stroke="#3D3D3D" stroke-width="2" stroke-miterlimit="10"/>
<path d="M17.6535 48.1106C19.6229 48.1605 21.2538 46.639 21.2962 44.7123C21.3387 42.7856 19.7767 41.1833 17.8073 41.1334C15.838 41.0835 14.207 42.605 14.1646 44.5317C14.1221 46.4584 15.6841 48.0607 17.6535 48.1106Z" stroke="#3D3D3D" stroke-width="2" stroke-miterlimit="10"/>
<path d="M38.7878 53.1131C43.2939 53.2273 47.0257 49.7459 47.1228 45.3374C47.22 40.9289 43.6458 37.2625 39.1397 37.1484C34.6335 37.0343 30.9018 40.5156 30.8046 44.9241C30.7075 49.3327 34.2816 52.999 38.7878 53.1131Z" stroke="#3D3D3D" stroke-width="2" stroke-miterlimit="10"/>
<path d="M38.887 48.6195C40.8564 48.6694 42.4873 47.1479 42.5297 45.2212C42.5722 43.2945 41.0102 41.6922 39.0408 41.6423C37.0715 41.5924 35.4405 43.1139 35.3981 45.0406C35.3556 46.9673 36.9177 48.5696 38.887 48.6195Z" stroke="#3D3D3D" stroke-width="2" stroke-miterlimit="10"/>
<path d="M122.888 31.7782L125.939 31.8514" stroke="#3D3D3D" stroke-width="2" stroke-miterlimit="10" stroke-linecap="round" stroke-linejoin="round"/>
<path d="M118.549 26.2985L118.842 13.0396L110.795 12.8361C109.101 12.7933 107.739 14.1211 107.704 15.7192L107.477 26.0186L118.549 26.2985Z" stroke="#3D3D3D" stroke-width="2" stroke-miterlimit="10" stroke-linecap="round" stroke-linejoin="round"/>
<path d="M91.9967 44.5037C92.0331 42.8519 93.4487 41.5892 95.0768 41.6304L104.303 41.8639C105.991 41.9066 107.288 43.297 107.253 44.8899L107.169 48.6654C107.133 50.3173 105.717 51.58 104.089 51.5388L94.8634 51.3053C93.175 51.2626 91.8783 49.8721 91.9134 48.2793L91.9967 44.5037Z" stroke="#3D3D3D" stroke-width="2" stroke-miterlimit="10"/>
<path d="M99.1716 3.61883L6.37381 1.10794C4.17059 1.04833 2.34093 2.78635 2.28715 4.98993L1.6859 29.6272C1.67245 30.1781 2.10807 30.6368 2.65888 30.6517L101.441 33.3245C101.991 33.3394 102.449 32.9049 102.462 32.354L103.063 7.71671C103.117 5.51313 101.375 3.67845 99.1716 3.61883Z" stroke="#3D3D3D" stroke-width="2" stroke-miterlimit="10" stroke-linecap="round" stroke-linejoin="round"/>
<path d="M4.72253 36.2634L4.51687 45.359" stroke="#3D3D3D" stroke-width="2" stroke-miterlimit="10" stroke-linecap="round" stroke-linejoin="round"/>
<path d="M52.2722 46.6462L65.4904 46.9632" stroke="#3D3D3D" stroke-width="2" stroke-miterlimit="10" stroke-linecap="round" stroke-linejoin="round"/>
</svg>
