<svg width="517" height="504" viewBox="0 0 517 504" fill="none" xmlns="http://www.w3.org/2000/svg">
<path d="M11.3235 178.039C10.3798 196.514 3.45995 228.845 0 249.167V313.83C0 341.542 21.7033 385.882 29.2523 395.119C36.8012 404.357 59.4481 416.366 80.2078 444.078C100.967 471.79 145.318 481.028 163.246 487.494C181.175 493.96 232.131 517.054 338.76 493.96C469.869 465.565 510.499 313.83 516.161 264.871C521.823 215.912 497.288 187.276 488.796 141.089C480.303 94.9015 440.671 77.3503 427.46 58.8754C414.25 40.4004 318 7.14558 257.609 0.679347C197.217 -5.78689 122.671 35.7817 109.46 45.943C96.2494 56.1042 60.3918 80.1216 37.7449 95.8253C15.0979 111.529 12.2671 159.564 11.3235 178.039Z" fill="white"/>
</svg>
