<svg width="142" height="97" viewBox="0 0 142 97" fill="none" xmlns="http://www.w3.org/2000/svg">
<path d="M92.0384 78.5601L92.5044 77.6753C92.2316 77.5316 91.9077 77.5218 91.6267 77.6487L92.0384 78.5601ZM53.5944 74.9257L54.1696 74.1076C53.7657 73.8236 53.215 73.8769 52.873 74.2331L53.5944 74.9257ZM37.625 36.0083L37.5983 37.008C38.0918 37.0211 38.5211 36.6722 38.609 36.1864L37.625 36.0083ZM108.961 22.1443L108.116 22.6798C108.281 22.9399 108.557 23.1095 108.864 23.1395L108.961 22.1443ZM91.6267 77.6487C86.8615 79.8013 81.5721 81 76 81V83C81.8616 83 87.4312 81.7386 92.4501 79.4714L91.6267 77.6487ZM76 81C67.8739 81 60.3463 78.4505 54.1696 74.1076L53.0193 75.7437C59.5218 80.3156 67.4489 83 76 83V81ZM37 83C43.8048 83 49.9495 80.1667 54.3158 75.6182L52.873 74.2331C48.8682 78.4051 43.238 81 37 81V83ZM13 59C13 72.2548 23.7452 83 37 83V81C24.8497 81 15 71.1503 15 59H13ZM37 35C23.7452 35 13 45.7452 13 59H15C15 46.8497 24.8497 37 37 37V35ZM37.6516 35.0087C37.4351 35.0029 37.2179 35 37 35V37C37.2001 37 37.3995 37.0027 37.5983 37.008L37.6516 35.0087ZM38.609 36.1864C41.8191 18.4512 57.3397 5 76 5V3C56.3554 3 40.0203 17.1602 36.641 35.8302L38.609 36.1864ZM76 5C89.5118 5 101.377 12.0514 108.116 22.6798L109.806 21.6088C102.715 10.4263 90.2252 3 76 3V5ZM137 52C137 35.9111 124.744 22.6858 109.059 21.149L108.864 23.1395C123.535 24.5769 135 36.9502 135 52H137ZM106 83C123.121 83 137 69.1208 137 52H135C135 68.0163 122.016 81 106 81V83ZM91.5724 79.4448C95.8828 81.7153 100.793 83 106 83V81C101.125 81 96.5344 79.7981 92.5044 77.6753L91.5724 79.4448Z" fill="#3D3D3D"/>
<path d="M6 87C17.5 99 39 95 49.5 87" stroke="#3D3D3D" stroke-width="2" stroke-miterlimit="10" stroke-linecap="round" stroke-linejoin="round"/>
<path d="M126.864 45.8349C126.864 36.5 108.5 27 95 33.9637" stroke="#3D3D3D" stroke-width="2" stroke-miterlimit="10" stroke-linecap="round" stroke-linejoin="round"/>
<path d="M103.389 24.4949C95.1895 5.9444 66.9871 7.78369 62.0012 19.4396" stroke="#3D3D3D" stroke-width="2" stroke-miterlimit="10" stroke-linecap="round" stroke-linejoin="round"/>
</svg>
