<svg width="91" height="59" viewBox="0 0 91 59" fill="none" xmlns="http://www.w3.org/2000/svg">
<path d="M57.3062 55.5182L57.7722 54.6334C57.4994 54.4897 57.1755 54.4799 56.8945 54.6069L57.3062 55.5182ZM29.5681 52.8959L30.1433 52.0778C29.7394 51.7938 29.1887 51.8472 28.8467 52.2034L29.5681 52.8959ZM18.0459 24.8163L18.0192 25.8159C18.5127 25.8291 18.9419 25.4802 19.0299 24.9944L18.0459 24.8163ZM69.5162 14.8131L68.6716 15.3486C68.8366 15.6087 69.1121 15.7783 69.4187 15.8084L69.5162 14.8131ZM56.8945 54.6069C53.4916 56.144 49.7142 57.0002 45.7342 57.0002V59.0002C50.0037 59.0002 54.0614 58.0813 57.7179 56.4295L56.8945 54.6069ZM45.7342 57.0002C39.9302 57.0002 34.5545 55.1794 30.1433 52.0778L28.993 53.7139C33.7301 57.0446 39.5052 59.0002 45.7342 59.0002V57.0002ZM17.5949 59.0002C22.5836 59.0002 27.0888 56.9227 30.2895 53.5884L28.8467 52.2034C26.0075 55.1611 22.0168 57.0002 17.5949 57.0002V59.0002ZM0 41.4052C0 51.1226 7.87752 59.0002 17.5949 59.0002V57.0002C8.98209 57.0002 2 50.0181 2 41.4052H0ZM17.5949 23.8103C7.87752 23.8103 0 31.6878 0 41.4052H2C2 32.7924 8.98209 25.8103 17.5949 25.8103V23.8103ZM18.0725 23.8166C17.9138 23.8124 17.7546 23.8103 17.5949 23.8103V25.8103C17.7368 25.8103 17.8783 25.8122 18.0192 25.8159L18.0725 23.8166ZM19.0299 24.9944C21.3225 12.3282 32.4075 2.72168 45.7342 2.72168V0.72168C31.4232 0.72168 19.5236 11.0373 17.0618 24.6382L19.0299 24.9944ZM45.7342 2.72168C55.3839 2.72168 63.8582 7.75719 68.6716 15.3486L70.3607 14.2776C65.1959 6.13212 56.0972 0.72168 45.7342 0.72168V2.72168ZM90.0253 36.3546C90.0253 24.6014 81.0724 14.9405 69.6137 13.8179L69.4187 15.8084C79.8633 16.8317 88.0253 25.6406 88.0253 36.3546H90.0253ZM67.3797 59.0002C79.8865 59.0002 90.0253 48.8614 90.0253 36.3546H88.0253C88.0253 47.7568 78.782 57.0002 67.3797 57.0002V59.0002ZM56.8401 56.4029C59.9893 58.0617 63.5764 59.0002 67.3797 59.0002V57.0002C63.9089 57.0002 60.6409 56.1445 57.7722 54.6334L56.8401 56.4029Z" fill="#3D3D3D"/>
<path d="M82.4335 31.906C82.4335 25.1707 69.1835 18.3162 59.443 23.3407" stroke="#3D3D3D" stroke-width="2" stroke-miterlimit="10" stroke-linecap="round" stroke-linejoin="round"/>
<path d="M65.4956 16.5088C59.5798 3.12424 39.2312 4.45132 35.6338 12.8613" stroke="#3D3D3D" stroke-width="2" stroke-miterlimit="10" stroke-linecap="round" stroke-linejoin="round"/>
</svg>
