<svg width="134" height="82" viewBox="0 0 134 82" fill="none" xmlns="http://www.w3.org/2000/svg">
<path d="M99.7664 70.7303L100.517 70.0699C100.208 69.7186 99.6971 69.6284 99.2866 69.8529L99.7664 70.7303ZM117.997 39.5653L116.997 39.5775C117.003 40.0295 117.311 40.4217 117.749 40.534L117.997 39.5653ZM64.1184 10.5248L63.9473 11.5101C64.194 11.5529 64.4479 11.5016 64.6586 11.3663L64.1184 10.5248ZM29.7001 24.4806L29.4968 25.4598C29.8885 25.5411 30.291 25.3811 30.52 25.0531L29.7001 24.4806ZM35.9439 67.2345L36.5759 66.4595C36.2617 66.2033 35.8238 66.1621 35.4674 66.3553L35.9439 67.2345ZM70.5412 72.7176L70.8973 71.7831C70.6684 71.6959 70.4154 71.6957 70.1864 71.7827L70.5412 72.7176ZM99.2866 69.8529C94.4512 72.4967 88.9026 74 83 74V76C89.2463 76 95.1238 74.4083 100.246 71.6077L99.2866 69.8529ZM113.5 76C108.355 76 103.724 73.7171 100.517 70.0699L99.0154 71.3906C102.58 75.4437 107.747 78 113.5 78V76ZM131 58C131 67.9664 123.14 76 113.5 76V78C124.295 78 133 69.0204 133 58H131ZM117.749 40.534C125.345 42.4824 131 49.5506 131 58H133C133 48.6487 126.737 40.7748 118.246 38.5967L117.749 40.534ZM83 6C101.637 6 116.771 20.9947 116.997 39.5775L118.997 39.5532C118.758 19.8767 102.733 4 83 4V6ZM64.6586 11.3663C69.9497 7.96989 76.2433 6 83 6V4C75.8489 4 69.182 6.08609 63.5782 9.68328L64.6586 11.3663ZM58 11C60.0313 11 62.0188 11.1751 63.9473 11.5101L64.2896 9.53957C62.2484 9.18502 60.1464 9 58 9V11ZM30.52 25.0531C36.4297 16.5895 46.5238 11 58 11V9C45.8671 9 35.1622 14.9114 28.8802 23.9081L30.52 25.0531ZM25 25C26.542 25 28.046 25.1585 29.4968 25.4598L29.9034 23.5015C28.3196 23.1727 26.6794 23 25 23V25ZM3 47C3 34.8497 12.8497 25 25 25V23C11.7452 23 1 33.7452 1 47H3ZM25 69C12.8497 69 3 59.1503 3 47H1C1 60.2548 11.7452 71 25 71V69ZM35.4674 66.3553C32.3556 68.0419 28.7912 69 25 69V71C29.1322 71 33.0233 69.9548 36.4204 68.1137L35.4674 66.3553ZM58 74C49.8177 74 42.3378 71.1587 36.5759 66.4595L35.3119 68.0094C41.4247 72.9948 49.3493 76 58 76V74ZM70.1864 71.7827C66.4181 73.2129 62.3068 74 58 74V76C62.5518 76 66.9034 75.1679 70.8961 73.6525L70.1864 71.7827ZM83 74C78.7352 74 74.6559 73.2152 70.8973 71.7831L70.1852 73.6521C74.1677 75.1695 78.488 76 83 76V74Z" fill="#3D3D3D"/>
<path d="M72 65C81 67.1667 100.1 68.2 104.5 55" stroke="#3D3D3D" stroke-width="2" stroke-miterlimit="10" stroke-linecap="round" stroke-linejoin="round"/>
<path d="M33.5002 32.5001C21.5 29.5 10.8526 36.4215 10.0114 50.3101" stroke="#3D3D3D" stroke-width="2" stroke-miterlimit="10" stroke-linecap="round" stroke-linejoin="round"/>
</svg>
