<svg width="97" height="97" viewBox="0 0 97 97" fill="none" xmlns="http://www.w3.org/2000/svg">
<path d="M41.6871 33.2261C43.3837 26.0363 53.6163 26.0363 55.3129 33.2261L55.6505 34.657C56.4336 37.9754 59.0246 40.5664 62.343 41.3495L63.7739 41.6871C70.9637 43.3837 70.9637 53.6163 63.7739 55.3129L62.343 55.6505C59.0246 56.4336 56.4336 59.0246 55.6505 62.343L55.3129 63.7739C53.6163 70.9637 43.3837 70.9637 41.6871 63.7739L41.3495 62.343C40.5664 59.0246 37.9754 56.4336 34.657 55.6505L33.2261 55.3129C26.0363 53.6163 26.0363 43.3837 33.2261 41.6871L34.657 41.3495C37.9754 40.5664 40.5664 37.9754 41.3495 34.657L41.6871 33.2261Z" stroke="#3D3D3D" stroke-width="2"/>
</svg>
