<svg width="85" height="85" viewBox="0 0 85 85" fill="none" xmlns="http://www.w3.org/2000/svg">
<path d="M1.8475 29.9534C1.69354 33.0326 0.564512 38.4211 0 41.8082V52.5852C0 57.204 3.54103 64.5939 4.7727 66.1335C6.00436 67.6731 9.69935 69.6746 13.0864 74.2933C16.4735 78.912 23.7095 80.4516 26.6347 81.5293C29.5599 82.607 37.8736 86.456 55.2709 82.607C76.6622 77.8744 83.2912 52.5852 84.215 44.4255C85.1387 36.2657 81.1358 31.493 79.7502 23.7951C78.3646 16.0972 71.8984 13.172 69.7429 10.0928C67.5875 7.01368 51.8838 1.4712 42.0305 0.393498C32.1772 -0.684208 20.0145 6.2439 17.8591 7.93744C15.7037 9.63097 9.85331 13.6339 6.15832 16.2512C2.46333 18.8684 2.00145 26.8743 1.8475 29.9534Z" fill="#F0C45E"/>
<g clip-path="url(#clip0_36_3462)">
<path d="M36.1196 60.3126C37.794 60.3126 39.1514 58.9539 39.1514 57.2779C39.1514 55.6018 37.794 54.2432 36.1196 54.2432C34.4452 54.2432 33.0879 55.6018 33.0879 57.2779C33.0879 58.9539 34.4452 60.3126 36.1196 60.3126Z" fill="white"/>
<path d="M53.6372 56.2657C55.3116 56.2657 56.6689 54.907 56.6689 53.231C56.6689 51.555 55.3116 50.1963 53.6372 50.1963C51.9628 50.1963 50.6055 51.555 50.6055 53.231C50.6055 54.907 51.9628 56.2657 53.6372 56.2657Z" fill="white"/>
<path d="M57.3423 40.418C59.0167 40.418 60.374 39.0594 60.374 37.3833C60.374 35.7073 59.0167 34.3486 57.3423 34.3486C55.6679 34.3486 54.3105 35.7073 54.3105 37.3833C54.3105 39.0594 55.6679 40.418 57.3423 40.418Z" fill="white"/>
<path d="M21.3084 62.9626C24.8825 65.6466 28.7328 68.0002 33.0446 69.2815C37.6461 70.6472 42.3453 70.7652 47.0681 70.0166C48.4963 69.7907 48.5064 67.5147 48.4121 66.4829C47.5936 57.5372 43.5378 49.2896 42.0623 40.4687C41.9815 39.9764 41.3212 37.7071 40.3477 38.5198C33.3208 44.3666 26.5634 50.5945 20.9715 57.8609C20.1866 58.8793 20.0957 60.4843 20.4696 61.6813C20.7054 62.4332 21.5745 63.728 22.3796 62.6827C27.7862 55.6523 34.2876 49.5627 41.0888 43.9047L39.3742 41.9557C40.1523 46.6258 41.4694 51.1509 42.8573 55.6692C44.097 59.7087 45.3366 63.7449 45.7206 67.9699L47.0647 64.4361C42.4935 65.1577 37.7741 65.1645 33.3275 63.7618C29.1943 62.4568 25.4922 60.1707 22.0461 57.5811C21.0557 56.8393 20.4123 58.9534 20.3315 59.53C20.1698 60.6798 20.3045 62.2141 21.305 62.966L21.3084 62.9626Z" fill="white"/>
<path d="M48.7931 69.7872C57.7637 66.8334 67.8527 59.8368 67.8661 49.3603C67.8661 48.5477 67.627 46.5684 66.4715 46.5684C65.3161 46.5684 65.0769 48.5982 65.0769 49.3603C65.0736 52.6715 62.3383 55.6725 60.0443 57.7563C56.642 60.845 52.3841 62.976 48.0487 64.4023C46.3509 64.962 46.6911 70.4785 48.7898 69.7872H48.7931Z" fill="white"/>
<path d="M40.8122 43.9084C49.6952 45.4426 58.1807 48.4875 66.4338 52.0515C66.8043 52.2134 67.2658 52.1325 67.5084 51.7717C70.5502 47.2668 69.6474 40.378 68.6369 35.3742C67.4612 29.5374 65.3491 22.9218 60.5118 19.0778C60.1446 18.7844 59.6899 19.1351 59.4372 19.3577C52.6091 25.4102 45.8988 31.6347 40.1048 38.709C39.2964 39.6936 39.2391 41.3593 39.6029 42.5293C39.8488 43.315 40.6842 44.5423 41.5129 43.5308C47.3069 36.4599 54.0171 30.232 60.8453 24.1795L59.7707 24.4593C63.3347 27.2917 64.9819 32.4608 65.9184 36.7297C66.39 38.8809 66.6797 41.0861 66.6763 43.2711C66.6763 44.2962 66.6696 44.7312 66.4776 45.7933C66.4271 46.0698 66.1946 46.8116 66.1003 46.9499L67.1749 46.67C58.6894 43.0081 49.9411 39.906 40.8122 38.3279C39.0707 38.0278 38.7843 43.5611 40.8122 43.9118V43.9084Z" fill="white"/>
<path d="M22.7388 43.6877C21.6626 42.4034 20.7682 40.9308 20.0062 39.4426C19.3863 38.2278 18.8495 36.9039 18.5278 35.3766C18.6233 35.8267 18.4605 34.9414 18.4479 34.8538C18.4286 34.7241 18.347 33.4353 18.3565 34.0728C18.3528 33.9114 18.4767 32.5373 18.3632 33.3388C18.3955 33.1049 18.4344 32.8721 18.4794 32.6438C18.3961 32.9785 18.39 33.0151 18.4616 32.7502C18.59 32.2281 18.8168 31.7293 19.2848 31.0554C19.8347 30.2586 20.4981 29.6003 21.2401 28.9826C23.014 27.505 25.5589 25.7871 27.974 25.8458C30.3892 25.9045 32.4037 27.7047 33.3762 29.8331C33.9468 31.0773 35.1315 30.284 35.7157 29.6296C34.8466 30.5988 35.7877 29.587 36.1402 29.2767C36.757 28.7337 37.4197 28.2224 38.1438 27.8341C40.2569 26.697 42.4982 26.5899 44.5108 27.9932C46.8174 29.5995 48.761 22.4513 46.6903 21.0075C42.2461 17.9085 37.2213 20.3227 33.9716 23.9465L36.311 23.743C35.3484 21.6367 33.494 19.7778 31.3575 18.911C27.2572 17.2474 22.4285 20.2653 19.5605 23.0572C13.5057 28.9537 13.3212 37.8971 16.8629 45.1458C17.6592 46.7764 18.6227 48.3871 19.7902 49.779C22.0167 52.4351 24.2637 45.5154 22.7316 43.6899L22.7388 43.6877Z" fill="white"/>
<path d="M63.4396 18.7408C65.2519 21.7856 66.6398 25.1339 67.7986 28.4721C70.1566 35.2631 71.4771 42.6408 70.197 49.7926C68.5531 58.9877 61.7486 66.4902 53.3944 70.3544C46.3406 73.6184 38.4345 73.2374 31.3133 70.4117C27.4091 68.864 23.4981 66.6925 20.3519 63.8702C19.1695 62.8081 16.414 64.548 17.8692 65.8529C26.5433 73.6319 39.8796 77.5062 51.1072 73.9421C60.3001 71.0254 68.9338 63.6713 72.2249 54.466C74.9265 46.9096 74.2629 38.5878 72.1171 30.9842C70.7831 26.2601 68.927 21.4822 66.4073 17.2504C65.5854 15.8713 62.5132 17.1796 63.443 18.7374L63.4396 18.7408Z" fill="white"/>
<path d="M38.1547 17.3607C38.3355 16.3414 38.7208 15.0383 39.2942 13.9377C39.6919 13.1734 40.029 12.6076 40.5498 12.3734C41.5736 11.9087 42.8442 12.3982 43.7886 12.9391C45.4177 13.8782 48.1352 10.3534 46.6306 9.48633C40.1698 5.76292 35.677 12.9394 34.6797 18.5948C34.5062 19.5708 35.2673 20.064 36.1414 19.7999C37.1479 19.4999 37.974 18.3595 38.1514 17.3601L38.1547 17.3607Z" fill="white"/>
</g>
<defs>
<clipPath id="clip0_36_3462">
<rect width="64" height="65" fill="white" transform="translate(10 10.2803)"/>
</clipPath>
</defs>
</svg>
