<svg width="85" height="85" viewBox="0 0 85 85" fill="none" xmlns="http://www.w3.org/2000/svg">
<path d="M1.8475 29.9534C1.69354 33.0326 0.564512 38.4211 0 41.8082V52.5852C0 57.204 3.54103 64.5939 4.7727 66.1335C6.00436 67.6731 9.69935 69.6746 13.0864 74.2933C16.4735 78.912 23.7095 80.4516 26.6347 81.5293C29.5599 82.607 37.8736 86.456 55.2709 82.607C76.6622 77.8744 83.2912 52.5852 84.215 44.4255C85.1387 36.2657 81.1358 31.493 79.7502 23.7951C78.3646 16.0972 71.8984 13.172 69.7429 10.0928C67.5875 7.01368 51.8838 1.4712 42.0305 0.393498C32.1772 -0.684208 20.0145 6.2439 17.8591 7.93744C15.7037 9.63097 9.85331 13.6339 6.15832 16.2512C2.46333 18.8684 2.00145 26.8743 1.8475 29.9534Z" fill="#F0C45E"/>
<path d="M35.1387 27.8499C35.053 29.9552 32.7503 30.6367 30.9367 30.3156C28.7947 29.9374 26.7884 27.982 26.8598 25.7054C26.9276 23.6037 29.2695 22.9186 31.0617 23.2397C33.3251 23.6429 35.0459 25.552 35.1387 27.8499C35.1851 29.0168 36.0848 29.4913 37.1058 28.9846C38.1911 28.4494 39.0479 26.9079 38.9979 25.7054C38.8266 21.3664 35.4671 17.8338 30.9582 18.3262C26.4278 18.8186 22.9506 23.4146 23.0005 27.8499C23.0505 32.2853 26.6313 35.7287 31.0439 35.2327C35.7385 34.701 38.8194 30.1657 38.9979 25.709C39.0443 24.5172 37.9876 24.0997 37.0308 24.5743C35.8741 25.1487 35.1887 26.6224 35.1387 27.8535V27.8499Z" fill="white"/>
<path d="M59.3416 37.1634C59.2526 40.4222 56.9994 43.4408 53.5888 43.6947C50.4418 43.9313 47.6852 41.5439 47.5825 38.3606C47.4763 35.1053 50.0685 32.0729 53.3353 31.8294C56.4686 31.5961 59.256 33.9802 59.3416 37.1634C59.3724 38.2748 59.8381 39.6058 61.0195 39.9694C62.0434 40.285 63.0228 39.4205 62.9954 38.364C62.879 34.0796 60.8449 29.9119 56.8076 28.0698C53.0648 26.3615 48.781 27.5141 46.2093 30.67C40.7886 37.3178 45.9457 49.6221 55.1297 48.1609C59.8895 47.4028 62.8721 42.9983 62.9988 38.364C63.0296 37.2595 62.4646 35.9114 61.3209 35.5581C60.2559 35.2288 59.3724 36.1172 59.345 37.1634H59.3416Z" fill="white"/>
<path d="M36.0461 55.1837C35.9791 57.7425 33.8559 59.0839 31.2872 58.7563C28.2966 58.3735 25.8687 55.4562 25.9256 52.356C25.9725 49.7938 28.1325 48.4593 30.6844 48.7834C33.7755 49.18 35.9657 52.0767 36.0461 55.1837C36.0862 56.6907 37.2818 57.3976 38.5678 56.6838C39.9643 55.9079 41.0393 53.9906 40.9958 52.3526C40.8852 48.1041 38.6683 44.0073 34.5725 42.6831C30.3562 41.3175 26.0696 43.5797 23.5914 47.1178C20.8553 51.0215 20.0181 56.3769 22.3891 60.6806C24.3784 64.2945 28.665 66.1429 32.5464 64.8877C37.7239 63.2117 40.8585 57.7459 40.9991 52.356C41.0393 50.8249 39.7098 50.1697 38.4774 50.8559C37.0206 51.6663 36.0929 53.5216 36.0494 55.1872L36.0461 55.1837Z" fill="white"/>
</svg>
