<svg width="157" height="138" viewBox="0 0 157 138" fill="none" xmlns="http://www.w3.org/2000/svg">
<mask id="path-1-inside-1_36_3484" fill="white">
<path d="M23.4679 2.05444C19.8986 -0.549633 14.8595 0.216583 12.5883 4.0064C8.00317 11.6573 4.59296 19.971 2.48634 28.6697C-0.249133 39.9652 -0.733006 51.6889 1.06234 63.1714C2.85769 74.6538 6.8971 85.6703 12.9499 95.5916C19.0028 105.513 26.9505 114.145 36.3394 120.995C45.7282 127.845 56.3743 132.778 67.6697 135.514C78.9652 138.249 90.6889 138.733 102.171 136.938C113.654 135.142 124.67 131.103 134.592 125.05C142.232 120.389 149.108 114.604 154.994 107.902C157.91 104.582 157.101 99.5496 153.532 96.9456L121.61 73.6559C118.04 71.0518 113.083 71.932 109.698 74.7715C108.435 75.8306 107.092 76.796 105.679 77.6583C101.981 79.9142 97.8751 81.4198 93.5955 82.0889C89.3158 82.758 84.9463 82.5777 80.7364 81.5582C76.5264 80.5386 72.5585 78.6999 69.0592 76.1469C65.5599 73.5939 62.5977 70.3766 60.3417 66.6788C58.0858 62.981 56.5802 58.8751 55.9111 54.5955C55.242 50.3158 55.4223 45.9463 56.4418 41.7364C56.8315 40.1273 57.3409 38.5536 57.964 37.0279C59.6347 32.9376 58.9596 27.9482 55.3903 25.3441L23.4679 2.05444Z"/>
</mask>
<path d="M23.4679 2.05444C19.8986 -0.549633 14.8595 0.216583 12.5883 4.0064C8.00317 11.6573 4.59296 19.971 2.48634 28.6697C-0.249133 39.9652 -0.733006 51.6889 1.06234 63.1714C2.85769 74.6538 6.8971 85.6703 12.9499 95.5916C19.0028 105.513 26.9505 114.145 36.3394 120.995C45.7282 127.845 56.3743 132.778 67.6697 135.514C78.9652 138.249 90.6889 138.733 102.171 136.938C113.654 135.142 124.67 131.103 134.592 125.05C142.232 120.389 149.108 114.604 154.994 107.902C157.91 104.582 157.101 99.5496 153.532 96.9456L121.61 73.6559C118.04 71.0518 113.083 71.932 109.698 74.7715C108.435 75.8306 107.092 76.796 105.679 77.6583C101.981 79.9142 97.8751 81.4198 93.5955 82.0889C89.3158 82.758 84.9463 82.5777 80.7364 81.5582C76.5264 80.5386 72.5585 78.6999 69.0592 76.1469C65.5599 73.5939 62.5977 70.3766 60.3417 66.6788C58.0858 62.981 56.5802 58.8751 55.9111 54.5955C55.242 50.3158 55.4223 45.9463 56.4418 41.7364C56.8315 40.1273 57.3409 38.5536 57.964 37.0279C59.6347 32.9376 58.9596 27.9482 55.3903 25.3441L23.4679 2.05444Z" stroke="#3D3D3D" stroke-width="4" mask="url(#path-1-inside-1_36_3484)"/>
</svg>
