<svg width="60" height="59" viewBox="0 0 60 59" fill="none" xmlns="http://www.w3.org/2000/svg">
<path d="M29.8784 24.2693L30 21.6407L30.1216 24.2693C30.2037 26.0442 32.3867 26.8387 33.5905 25.5318L35.3733 23.5964L33.7768 25.6882C32.6988 27.1006 33.8603 29.1125 35.6226 28.8851L38.2323 28.5484L35.6648 29.1246C33.9311 29.5137 33.5277 31.8015 35.0238 32.7601L37.2394 34.1796L34.9022 32.9707C33.324 32.1543 31.5444 33.6476 32.0743 35.3435L32.859 37.8551L31.8458 35.4267C31.1616 33.7869 28.8384 33.7869 28.1542 35.4267L27.1409 37.8552L27.9257 35.3436C28.4556 33.6476 26.676 32.1543 25.0978 32.9707L22.7607 34.1796L24.9762 32.7601C26.4723 31.8015 26.0689 29.5137 24.3352 29.1246L21.7677 28.5484L24.3774 28.8851C26.1396 29.1125 27.3012 27.1006 26.2232 25.6882L24.6267 23.5964L26.4095 25.5318C27.6133 26.8387 29.7963 26.0442 29.8784 24.2693Z" stroke="#3D3D3D" stroke-width="2"/>
</svg>
