<svg width="818" height="786" viewBox="0 0 818 786" fill="none" xmlns="http://www.w3.org/2000/svg">
<g style="mix-blend-mode:plus-lighter" opacity="0.15" filter="url(#filter0_f_36_3560)">
<path d="M113.536 307.006C112.408 328.486 104.136 366.078 100 389.707V464.889C100 497.11 125.943 548.664 134.967 559.405C143.991 570.145 171.062 584.108 195.877 616.329C220.692 648.55 273.707 659.291 295.138 666.809C316.569 674.327 377.479 701.178 504.94 674.327C661.662 641.312 710.229 464.889 716.997 407.965C723.765 351.041 694.438 317.746 684.286 264.044C674.134 210.342 626.76 189.935 610.968 168.454C595.177 146.974 480.124 108.308 407.935 100.79C335.745 93.2716 246.635 141.603 230.844 153.418C215.052 165.232 172.19 193.157 145.119 211.416C118.047 229.675 114.664 285.525 113.536 307.006Z" fill="white"/>
</g>
<defs>
<filter id="filter0_f_36_3560" x="0" y="0" width="818" height="786" filterUnits="userSpaceOnUse" color-interpolation-filters="sRGB">
<feFlood flood-opacity="0" result="BackgroundImageFix"/>
<feBlend mode="normal" in="SourceGraphic" in2="BackgroundImageFix" result="shape"/>
<feGaussianBlur stdDeviation="50" result="effect1_foregroundBlur_36_3560"/>
</filter>
</defs>
</svg>
