<svg width="465" height="445" viewBox="0 0 465 445" fill="none" xmlns="http://www.w3.org/2000/svg">
    <path d="M31.7027 166.252C30.8941 182.051 24.9647 209.699 22 227.078V282.374C22 306.073 40.5968 343.99 47.0653 351.89C53.5337 359.789 72.9391 370.059 90.7274 393.757C108.516 417.456 146.518 425.355 161.88 430.885C177.243 436.415 220.905 456.163 312.272 436.415C424.615 412.132 459.43 282.374 464.281 240.507C469.132 198.639 448.11 174.151 440.833 134.653C433.556 95.1559 399.596 80.1468 388.277 64.3478C376.957 48.5488 294.484 20.1106 242.736 14.5809C190.989 9.05129 127.112 44.5991 115.793 53.2885C104.473 61.978 73.7477 82.5167 54.3423 95.9459C34.9369 109.375 32.5112 150.452 31.7027 166.252Z"
          fill="#F0C45E"/>
    <path d="M10.7684 155.018C9.95436 171 3.98479 198.969 1 216.55V272.488C1 296.461 19.7228 334.819 26.235 342.81C32.7473 350.801 52.2841 361.189 70.1928 385.163C88.1015 409.136 126.361 417.127 141.828 422.721C157.294 428.315 201.252 448.293 293.238 428.315C406.342 403.751 441.392 272.488 446.276 230.135C451.16 187.781 429.995 163.009 422.669 123.053C415.343 83.0974 381.153 67.9142 369.757 51.9319C358.361 35.9496 275.329 7.18149 223.231 1.58769C171.133 -4.00612 106.824 31.9541 95.4278 40.7443C84.0314 49.5346 53.0981 70.3116 33.5613 83.8965C14.0245 97.4815 11.5824 139.035 10.7684 155.018Z"
          stroke="#3D3D3D" stroke-width="2" stroke-miterlimit="10" stroke-linecap="round" stroke-linejoin="round"/>
    <path d="M331.627 110.939C330.494 97.371 299.776 88.9287 290.815 107.556C282.323 125.208 338.045 174.214 338.045 174.214C338.045 174.214 351.316 160.632 366.468 143.571C381.62 126.51 382.529 116.278 373.034 105.928C367.123 99.4847 352.619 92.3013 338.045 105.928C330.085 116.298 337.686 115.753 331.627 121.447"
          stroke="#DE3B3B" stroke-width="12" stroke-linecap="round"/>
    <path d="M309.306 101.507C308.129 103.02 304.542 107.55 303.158 109.577C302.902 109.953 303.916 109.152 304.202 108.81C306.232 106.393 308.225 101.577 310.954 100.147C317.427 96.7564 296.222 127.458 302.187 123.123C307.444 119.303 312.488 114.236 316.954 109.282C318.151 107.955 317.425 108.265 316.477 109.03C313.229 111.65 310.328 114.832 307.496 118.015C307.445 118.073 300.643 124.851 304.93 123.48C310.719 121.63 314.804 116.558 320.027 113.612C323.47 111.67 326.658 109.125 321.625 114.575C314.314 122.493 305.701 123.35 300.575 133.588C299.79 135.156 320.945 122.366 317.912 128.388C325.038 124.231 317.069 132.61 323.725 127.645C331.196 122.072 352.434 103.592 345.861 110.477C335.63 121.193 300.835 147.523 312.392 138.732C324.895 129.222 357.862 94.1796 347.835 107.036C341.986 114.536 336.228 122.143 330.362 129.625C327.766 132.935 326.651 134.353 324.075 137.106C323.325 137.908 320.833 139.752 321.897 139.601C323.733 139.34 325.124 137.856 326.68 136.875C336.088 130.944 345.384 124.808 354.813 118.916C359.91 115.731 364.12 113.104 369.216 110.287C375.141 107.011 368.8 110.813 368.749 110.844C356.989 118.064 345.95 126.574 335.42 135.817C332.338 138.523 329.178 141.208 327.009 145.031C324.902 148.742 339.967 138.091 340.13 137.979C341.759 136.868 357.855 123.628 350.268 134.316C349.061 136.017 333.571 151.915 335.249 155.276C335.541 155.86 336.022 154.584 336.403 154.23C340.05 150.847 343.893 147.758 347.721 144.646C348.706 143.845 359.277 134.587 352.704 141.306C346.115 148.041 338.621 153.247 330.134 156.651C325.192 158.633 332.413 154.389 333.1 153.83C346.001 143.321 357.794 131.065 370.769 120.563"
          stroke="#DE3B3B" stroke-width="12" stroke-linecap="round"/>
    <path d="M363.507 132.531C364.356 128.596 364.722 126.908 365.811 123.486C366.128 122.49 367.562 119.924 366.655 120.442C365.09 121.335 364.501 123.181 363.527 124.628C357.636 133.38 351.944 142.278 346.016 151.002C342.813 155.717 340.164 159.609 336.791 163.99C332.868 169.085 336.929 163.364 336.961 163.318C344.413 152.554 350.606 140.876 355.991 128.714C357.567 125.154 359.223 121.585 359.444 117.337C359.658 113.212 350.762 128.274 350.663 128.434C349.682 130.026 341.039 147.809 343.052 135.387C343.372 133.41 350.227 113.429 347.127 110.976C346.588 110.55 346.738 111.881 346.552 112.338C344.771 116.716 342.674 120.896 340.602 125.092C340.069 126.172 334.652 138.362 337.574 129.908C340.502 121.433 344.971 114.025 351.187 107.897C354.807 104.33 350.143 110.768 349.771 111.521C342.796 125.681 337.647 141.031 330.6 155.211"
          stroke="#DE3B3B" stroke-width="12" stroke-linecap="round"/>
</svg>

