<?xml version="1.0" encoding="UTF-8"?>
<svg xmlns="http://www.w3.org/2000/svg" version="1.1" viewBox="0 0 165.8 37.6">
  <defs>
    <style>
      .cls-1 {
        fill: #fff;
      }
    </style>
  </defs>
  <!-- Generator: Adobe Illustrator 28.7.1, SVG Export Plug-In . SVG Version: 1.2.0 Build 142)  -->
  <g>
    <g id="Layer_1">
      <path class="cls-1" d="M7.9,5.6c1.4-.9,3-1.2,4.8-1.2s3.9.5,5.3,1.5c1.1.8,1.9,1.9,2.3,3.3.2.7.8,1.2,1.5,1.2h2.8c-.2-3-1.4-5.3-3.5-7-2.2-1.6-4.9-2.5-8.4-2.5s-5.5.6-7.6,1.9c-2.2,1.2-3.4,3.1-3.5,5.5,0,1.4.4,2.5,1.2,3.4.8.9,2,1.4,3.4,1.8,1.4.4,3.3.8,5.6,1.2,2.2.4,3.8.7,5,1,1.1.3,2.1.7,2.8,1.3.7.6,1,1.6,1,2.7,0,1.6-.8,2.8-2.3,3.6-1.5.8-3.2,1.2-5,1.2s-4.1-.5-5.7-1.5c-1.4-1-2.2-2.1-2.6-3.5-.2-.7-.8-1.1-1.5-1.1H.5c.2,3.1,1.5,5.4,3.9,7s5.3,2.5,8.9,2.5,5.4-.5,7.6-1.8c2.2-1.2,3.5-3.1,3.6-5.4,0-1.5-.4-2.6-1.2-3.5-.9-.9-2-1.4-3.5-1.9-1.5-.4-3.2-.9-5.7-1.3-2.9-.5-5-1-6.3-1.6-1.4-.6-2-1.7-2-3.1,0-1.6.7-2.9,2.1-3.7"/>
      <path class="cls-1" d="M44.3.9c-5.4,0-8.6,3.2-9.9,7.8V3.1c0-.9-.8-1.7-1.7-1.7h-2.3v33.2c0,.9.8,1.7,1.7,1.7h2.3v-16.2c1.3,4.5,4.5,7.7,9.9,7.7s12-5.8,12-13.5c0-7.7-5-13.4-12-13.4M42.9,24.7c-5.3,0-8.5-3.5-8.5-10.4s3.2-10.3,8.5-10.3,9,4,9,10.4-4,10.3-9,10.3"/>
      <path class="cls-1" d="M74.8.9c-4,0-7.8,3.3-9,7.9V3.1c0-.9-.8-1.7-1.7-1.7h-2.3v24.2c0,.9.8,1.7,1.7,1.7h2.3v-14c0-5.2,3.4-9.5,8-9.3,3.3.2,4.7,2.8,5.1,6.3,0,.8.8,1.5,1.6,1.5h2.3c.4-8.3-3.2-10.9-8-10.9"/>
      <path class="cls-1" d="M104.9,4c-.9-1.1-2.2-1.9-3.5-2.4,0,0-.3-.1-.4-.1-3.2-1-6.7-.6-9.8.7-1.4.6-2.7,1.4-3.7,2.6-.6.7-.9,1.8-.4,2.6.7,1.1,2.4.6,3.5,0,1.4-.6,2.7-1.2,4.3-1.2s2.8.8,2.8,2.3-1.4,2.3-2.5,3c-1.6,1.1-3.2,2-4.9,2.9-2.1,1.2-4.2,2.7-5.3,4.8-1.2,2.1-1.2,5,.5,6.8,1.2,1.3,3.1,1.7,4.9,1.8,4.8.1,8.8-2.6,12.3-5.6v3.4c0,.9.8,1.7,1.7,1.7h2.3v-15c0-1.4,0-3,0-4.5-.4-1.4-.8-2.8-1.7-3.9M102.5,20.9c-.7.6-1.6,1.2-3,2.2-3,2.1-7.3,3.2-9.4,1-1.9-2.1-1-5.1.7-7,1.5-1.6,3.3-2.9,4.9-4.4,1.4-1.3,3.2-3,2.8-4.9-.2-1.3-1.1-1.9-2-2.3-1-.4-2.7-.3-4.1-.2-.5,0-1.4,0-1.5-.4-.2-.7.7-1.3,1.1-1.7,1.7-1.2,4.1-1.8,6.1-1.1,3.3,1.1,4.3,4.7,4.3,7.9v10.9h0Z"/>
      <path class="cls-1" d="M165.1,8c-.2-1.4-.6-2.8-1.4-4-.9-1.1-2.2-1.9-3.5-2.4-.1,0-.3-.1-.4-.1-3.2-1-6.7-.6-9.8.7-1.4.6-2.7,1.4-3.7,2.6-.6.7-.9,1.8-.4,2.6.7,1.1,2.4.6,3.5,0,1.4-.6,2.7-1.2,4.3-1.2s2.8.8,2.8,2.3-1.4,2.3-2.5,3c-1.6,1.1-3.2,2-4.9,2.9-2.1,1.2-4.2,2.7-5.3,4.8-1.2,2.1-1.2,5,.5,6.8,1.2,1.3,3.1,1.7,4.9,1.8,4.8.1,8.8-2.6,12.3-5.6v3.4c0,.9.8,1.7,1.7,1.7h2.3v-15c-.3-1.3-.2-3-.4-4.4M161.2,20.9c-.7.6-1.6,1.2-3,2.2-3,2.1-7.3,3.2-9.4,1-1.9-2.1-1-5.1.7-7,1.5-1.6,3.3-2.9,4.9-4.4,1.4-1.3,3.2-3,2.8-4.9-.2-1.3-1.1-1.9-2-2.3-1-.4-2.7-.3-4.1-.2-.5,0-1.4,0-1.5-.4-.2-.7.7-1.3,1.1-1.7,1.7-1.2,4.1-1.8,6.1-1.1,3.3,1.1,4.3,4.7,4.3,7.9v10.9h0Z"/>
      <path class="cls-1" d="M133.9,3.1v5.6c-1.3-4.6-4.5-7.8-9.9-7.8s-12,5.8-12,13.5,5.1,13.5,12,13.5,8.6-3.2,9.9-7.7v4.4c0,1.6-.1,10.5-6.7,11.1-8,.7-11.5-6.8-11.5-6.8,0,0-1.3,1.6-1.8,2.6-.4.9-.2,2,.7,2.7,1.8,1.4,6.8,3.4,13.3,2.5,9.7-1.3,10-10.4,10-15.2V1.4h-2.3c-1,0-1.7.7-1.7,1.7M125.3,24.7c-4.9,0-9-4-9-10.4s4-10.4,9-10.4,8.5,3.6,8.5,10.4c0,6.9-3.1,10.4-8.5,10.4"/>
    </g>
  </g>
</svg>