<svg width="196" height="42" viewBox="0 0 196 42" fill="none" xmlns="http://www.w3.org/2000/svg">
    <g clip-path="url(#clip0_36_4318)">
        <path d="M8.83533 5.48005C10.5717 4.47641 12.5599 3.97443 14.5724 4.03142C17.0612 4.03142 19.1662 4.62468 20.8874 5.81108C22.238 6.73372 23.1929 8.11683 23.5674 9.69294C23.6649 10.0881 23.8945 10.4395 24.2193 10.6905C24.5442 10.9416 24.9453 11.0778 25.3582 11.0771H28.6365C28.4016 7.54755 27.0056 4.81829 24.4485 2.88938C21.8914 0.960484 18.5748 -0.00268462 14.4987 5.61991e-06C10.8105 5.61991e-06 7.94199 0.71848 5.42995 2.20349C2.91792 3.6885 1.43857 5.85953 1.36481 8.66006C1.30989 9.38341 1.40792 10.11 1.65267 10.7942C1.89743 11.4783 2.2836 12.105 2.78681 12.6347C3.77851 13.6355 5.13082 14.2168 6.83146 14.7212C9.00655 15.294 11.2118 15.7493 13.4373 16.0851C16.0231 16.529 17.9246 16.9285 19.3465 17.2957C20.5512 17.5369 21.6771 18.0662 22.6249 18.8371C23.047 19.2421 23.3731 19.7339 23.5799 20.2773C23.7868 20.8207 23.8693 21.4023 23.8215 21.9807C23.7723 23.8639 22.8489 25.2588 21.0513 26.1654C19.2133 27.0774 17.1796 27.5411 15.1216 27.5173C12.7235 27.5857 10.3579 26.9583 8.31902 25.7134C6.85501 24.8051 5.78481 23.3947 5.31522 21.7547C5.20149 21.3672 4.96292 21.0266 4.63548 20.7843C4.30804 20.5419 3.90948 20.4108 3.49984 20.4109H0.0166016C0.289797 23.9862 1.82789 26.7371 4.63088 28.6633C7.43386 30.5895 10.9553 31.5526 15.1953 31.5526C18.7441 31.5526 21.6086 30.9149 24.2354 29.4904C26.8621 28.0659 28.4316 25.9111 28.5054 23.1832C28.5518 21.4561 28.0683 20.0815 27.0547 19.0592C26.0426 18.0342 24.6615 17.3925 22.924 16.8679C20.7013 16.2324 18.4403 15.7351 16.1543 15.3789C12.6915 14.7938 10.2409 14.1682 8.60995 13.466C7.87129 13.1843 7.24262 12.6789 6.81468 12.0225C6.38674 11.3661 6.18167 10.5928 6.22905 9.81412C6.23803 8.92788 6.48551 8.05988 6.94624 7.29852C7.40697 6.53717 8.06448 5.90959 8.85174 5.48005"
              fill="#080807"/>
        <path d="M52.097 -0.00390625C45.6551 -0.00390625 41.8809 3.68845 40.2868 9.08373V2.55858C40.2868 2.0331 40.0748 1.52902 39.6975 1.15744C39.3202 0.785864 38.8084 0.577162 38.2747 0.577162L35.5332 0.577162V39.4216C35.5332 39.6821 35.5854 39.94 35.6868 40.1806C35.7881 40.4213 35.9367 40.6399 36.124 40.8239C36.3113 41.008 36.5335 41.1539 36.7781 41.2533C37.0227 41.3526 37.2848 41.4034 37.5494 41.4028H40.2868V22.5295C41.8809 27.8239 45.6551 31.5446 52.097 31.5446C60.3913 31.5446 66.4029 24.8094 66.4029 15.7702C66.4029 6.73104 60.3954 -0.00390625 52.097 -0.00390625ZM50.4579 27.9248C44.102 27.9248 40.295 23.8329 40.295 15.7702C40.295 7.86901 44.102 3.6159 50.4579 3.6159C56.3425 3.6159 61.1371 8.32501 61.1371 15.7702C61.1371 23.2155 56.3425 27.9248 50.4579 27.9248Z"
              fill="#080807"/>
        <path d="M88.3474 -0.00390625C83.6143 -0.00390625 79.0574 3.89824 77.66 9.22894V2.56253C77.66 2.03704 77.448 1.53316 77.0707 1.16158C76.6934 0.790002 76.1816 0.581299 75.648 0.581299L72.9023 0.581299V28.978C72.9023 29.2385 72.9545 29.4965 73.0559 29.7372C73.1573 29.9778 73.3058 30.1964 73.4931 30.3805C73.6804 30.5645 73.9027 30.7103 74.1473 30.8096C74.3919 30.909 74.6539 30.9599 74.9185 30.9594H77.6559V14.6042C77.7502 8.48253 81.6678 3.42206 87.1713 3.67225C91.0972 3.84577 92.8142 6.96113 93.2281 11.1014C93.2738 11.5806 93.4987 12.0261 93.8592 12.3512C94.2196 12.6763 94.6899 12.8579 95.1787 12.8608L97.9366 12.8608C98.4038 3.01046 94.0559 3.45288e-05 88.3433 3.45288e-05"
              fill="#080807"/>
        <path d="M124.192 3.62776C123.102 2.30586 121.646 1.32445 120 0.80301L119.52 0.649714C115.726 -0.508433 111.538 -0.0605088 107.878 1.45679C106.218 2.14683 104.6 3.0709 103.485 4.45907C102.793 5.31456 102.362 6.54926 102.969 7.46529C103.838 8.79292 105.837 8.11916 107.067 7.6107C108.755 6.90452 110.275 6.21449 112.144 6.21449C113.709 6.21449 115.496 7.19104 115.447 8.93835C115.398 10.6857 113.746 11.6703 112.431 12.5016C110.484 13.7364 108.595 14.7896 106.616 15.8993C104.108 17.2996 101.653 19.0308 100.256 21.5165C98.8585 24.0023 98.8012 27.4041 100.793 29.4621C102.248 30.9713 104.481 31.4799 106.595 31.5364C112.333 31.6614 117.115 28.5098 121.291 24.9304V28.9658C121.291 29.4913 121.503 29.9952 121.88 30.3667C122.257 30.7383 122.769 30.9472 123.303 30.9472H126.04V13.5305C126.089 11.7804 126.037 10.0289 125.884 8.28458C125.753 6.60444 125.164 4.99023 124.18 3.6116M121.311 23.4938C120.492 24.1516 119.426 24.9304 117.77 26.0845C114.185 28.5824 109.034 29.8656 106.641 27.2628C104.362 24.781 105.411 21.2986 107.517 19.0792C109.288 17.2189 111.423 15.6532 113.3 13.9059C114.996 12.32 117.062 10.4434 116.635 8.12714C116.348 6.5695 115.32 5.85931 114.25 5.44367C113.021 4.9675 111.038 5.0402 109.403 5.20565C108.821 5.25811 107.763 5.37901 107.571 4.74142C107.325 3.96664 108.358 3.16771 108.882 2.79645C110.89 1.37601 113.8 0.714201 116.172 1.47688C120.119 2.73995 121.311 6.96099 121.311 10.7139V23.4938Z"
              fill="#080807"/>
        <path d="M195.84 8.29634C195.708 6.6162 195.119 5.00219 194.135 3.62356C193.046 2.3008 191.59 1.3192 189.943 0.798813L189.464 0.64532C185.673 -0.512828 181.481 -0.0649033 177.821 1.45239C176.182 2.14244 174.543 3.06651 173.428 4.45467C172.736 5.31017 172.306 6.54507 172.912 7.46109C173.781 8.78873 175.801 8.11477 177.01 7.60631C178.698 6.90012 180.219 6.21009 182.087 6.21009C183.653 6.21009 185.439 7.18665 185.39 8.93396C185.341 10.6813 183.694 11.6659 182.374 12.4972C180.428 13.732 178.539 14.7852 176.559 15.895C174.051 17.2952 171.597 19.0264 170.199 21.5121C168.802 23.9979 168.745 27.3997 170.736 29.4577C172.191 30.967 174.424 31.4755 176.539 31.532C182.276 31.6571 187.058 28.5054 191.234 24.926V28.9614C191.234 29.4869 191.446 29.991 191.823 30.3625C192.201 30.7341 192.712 30.9428 193.246 30.9428H195.983V13.5261C196.033 11.776 195.981 10.0245 195.828 8.28018M191.234 23.4896C190.414 24.1474 189.349 24.9262 187.693 26.0803C184.108 28.5782 178.957 29.8614 176.563 27.2586C174.285 24.7768 175.334 21.2942 177.44 19.0748C179.215 17.2145 181.346 15.6488 183.223 13.9015C184.919 12.3156 186.984 10.4392 186.558 8.12295C186.271 6.5653 185.243 5.85512 184.173 5.43947C182.944 4.9633 180.96 5.0358 179.325 5.20125C178.743 5.25371 177.686 5.37481 177.494 4.73723C177.252 3.96244 178.28 3.16351 178.805 2.79226C180.813 1.37181 183.722 0.710003 186.095 1.47269C190.041 2.73575 191.234 6.95659 191.234 10.7095V23.4896Z"
              fill="#080807"/>
        <path d="M158.684 2.5664V9.13193C157.094 3.71648 153.32 0.00390625 146.862 0.00390625C138.563 0.00390625 132.556 6.74289 132.556 15.7781C132.556 24.8132 138.567 31.5524 146.862 31.5524C153.32 31.5524 157.106 27.8115 158.684 22.4969V27.6743C158.684 29.5104 158.537 39.9822 150.726 40.6278C141.223 41.4107 136.99 32.6176 136.99 32.6176C136.99 32.6176 135.437 34.4699 134.879 35.7087C134.649 36.2451 134.604 36.8413 134.753 37.405C134.901 37.9688 135.233 38.4689 135.699 38.8281C137.838 40.4624 143.731 42.7867 151.537 41.7375C163.048 40.192 163.45 29.5628 163.45 23.9416V0.584974L160.708 0.584974C160.175 0.584974 159.663 0.793677 159.286 1.16525C158.908 1.53683 158.696 2.04091 158.696 2.5664M148.505 27.9326C142.62 27.9326 137.826 23.2233 137.826 15.7781C137.826 8.33282 142.62 3.62371 148.505 3.62371C154.861 3.62371 158.668 7.87683 158.668 15.7781C158.668 23.8488 154.861 27.9326 148.505 27.9326Z"
              fill="#080807"/>
    </g>
    <defs>
        <clipPath id="clip0_36_4318">
            <rect width="196" height="42" fill="white"/>
        </clipPath>
    </defs>
</svg>
