<svg width="101" height="105" viewBox="0 0 101 105" fill="none" xmlns="http://www.w3.org/2000/svg">
<path d="M31.0884 46.1928C35.824 45.3982 39.2106 40.7369 38.5029 35.9875C42.8012 38.1281 48.2809 36.3477 50.5 32.0894C52.7191 36.3477 58.1988 38.1281 62.4971 35.9875C61.7894 40.7369 65.176 45.3982 69.9116 46.1928C66.5475 49.6192 66.5475 55.3808 69.9117 58.8072C65.176 59.6018 61.7894 64.2631 62.4971 69.0125C58.1988 66.8719 52.7191 68.6523 50.5 72.9106C48.2809 68.6523 42.8012 66.8719 38.5029 69.0125C39.2106 64.2631 35.824 59.6018 31.0884 58.8072C34.4525 55.3808 34.4525 49.6192 31.0884 46.1928Z" stroke="#3D3D3D" stroke-width="2"/>
</svg>
