<svg width="135" height="98" viewBox="0 0 135 98" fill="none" xmlns="http://www.w3.org/2000/svg">
<path d="M59.2419 39.978C59.1433 45.2199 59.0496 50.1545 58.5543 54.6248C58.0589 59.0952 57.1685 63.0254 55.518 66.2682C53.8796 69.4871 51.4824 72.0496 47.9123 73.7933C44.3203 75.5477 39.4793 76.5029 32.9195 76.3794L32.8819 78.3791C39.6363 78.5062 44.8207 77.5291 48.79 75.5904C52.7813 73.641 55.4813 70.7495 57.3004 67.1754C59.1074 63.6253 60.0348 59.4236 60.5421 54.845C61.0495 50.2663 61.1433 45.2349 61.2415 40.0156L59.2419 39.978ZM32.9195 76.3794C26.3598 76.256 21.5581 75.1194 18.0346 73.2311C14.5326 71.3544 12.2335 68.7036 10.7174 65.4253C9.19002 62.1227 8.44807 58.1618 8.12123 53.6759C7.7944 49.1902 7.88644 44.2555 7.98506 39.0136L5.98542 38.976C5.88722 44.1953 5.79175 49.2267 6.12651 53.8212C6.46126 58.4156 7.22998 62.6492 8.90214 66.2648C10.5855 69.9048 13.1749 72.8958 17.0899 74.994C20.9835 77.0806 26.1275 78.252 32.8819 78.3791L32.9195 76.3794ZM7.98506 39.0136C8.17848 28.7332 11.2833 19.5239 16.0956 12.9442C20.91 6.36166 27.3682 2.48159 34.3074 2.61215L34.345 0.612501C26.5779 0.466367 19.5624 4.8163 14.4813 11.7635C9.39812 18.7136 6.18564 28.3339 5.98542 38.976L7.98506 39.0136ZM34.3074 2.61215C41.2467 2.74271 47.5543 6.86296 52.1177 13.622C56.6791 20.378 59.4353 29.6976 59.2419 39.978L61.2415 40.0156C61.4418 29.3735 58.5934 19.6392 53.7753 12.5028C48.9591 5.36938 42.1122 0.758635 34.345 0.612501L34.3074 2.61215Z" fill="#3D3D3D"/>
<path d="M28.773 85.2906C23.4135 86.7368 12.9034 85.7376 13.739 70.1704" stroke="#3D3D3D" stroke-width="2" stroke-miterlimit="10" stroke-linecap="round" stroke-linejoin="round"/>
<path d="M34.9241 5.90776C28.3666 4.13662 5.91288 16.2676 13.7334 62.6815" stroke="#3D3D3D" stroke-width="2" stroke-miterlimit="10" stroke-linecap="round" stroke-linejoin="round"/>
<path d="M41.6083 20.6579C41.8677 16.537 38.9517 13.4602 34.3415 14.0237" stroke="#3D3D3D" stroke-width="2" stroke-miterlimit="10" stroke-linecap="round" stroke-linejoin="round"/>
<path d="M48.2773 23.3457C47.4908 20.733 44.977 19.4968 42.2501 20.9056" stroke="#3D3D3D" stroke-width="2" stroke-miterlimit="10" stroke-linecap="round" stroke-linejoin="round"/>
<rect x="30.2209" y="77.064" width="6.83707" height="19.2197" transform="rotate(1.07786 30.2209 77.064)" stroke="#3D3D3D" stroke-width="2" stroke-miterlimit="10" stroke-linecap="round" stroke-linejoin="round"/>
<path d="M84.8705 58.4957L84.8621 59.4957C85.1724 59.4983 85.4663 59.3567 85.6577 59.1125L84.8705 58.4957ZM91.157 93.9007L91.4719 92.9516C91.3565 92.9133 91.2352 92.8964 91.1138 92.9016L91.157 93.9007ZM132.352 72.6674C132.29 75.9704 132.231 79.0234 131.775 81.7769C131.322 84.5164 130.487 86.8809 128.927 88.8221C125.827 92.6812 119.546 95.2287 106.295 94.9794L106.257 96.9791C119.634 97.2307 126.768 94.7022 130.486 90.0749C132.336 87.7729 133.262 85.0415 133.748 82.1033C134.232 79.1791 134.29 75.9726 134.352 72.7051L132.352 72.6674ZM107.153 49.3911C121.416 49.6595 132.587 60.1814 132.352 72.6674L134.352 72.7051C134.611 58.909 122.34 47.6765 107.19 47.3915L107.153 49.3911ZM85.6577 59.1125C90.3568 53.1151 98.2458 49.2235 107.153 49.3911L107.19 47.3915C97.6853 47.2126 89.1877 51.3644 84.0833 57.879L85.6577 59.1125ZM59.3331 75.7506C59.4161 71.3359 62.1548 67.2652 66.772 64.2701C71.3828 61.2791 77.7733 59.4361 84.8621 59.4957L84.8789 57.4958C77.4543 57.4334 70.6674 59.3592 65.6836 62.5922C60.7061 65.821 57.4328 70.4294 57.3334 75.713L59.3331 75.7506ZM84.6467 92.9643C71.3398 92.7139 65.096 90.5912 62.1333 87.6256C59.2167 84.7061 59.239 80.7484 59.3331 75.7506L57.3334 75.713C57.2432 80.5079 57.0987 85.4159 60.7184 89.0391C64.2921 92.6163 71.2877 94.7133 84.6091 94.964L84.6467 92.9643ZM91.1138 92.9016C89.1603 92.9861 87.0111 93.0088 84.6467 92.9643L84.6091 94.964C87.0085 95.0091 89.1995 94.9863 91.2003 94.8998L91.1138 92.9016ZM106.295 94.9794C99.8359 94.8579 95.0367 94.134 91.4719 92.9516L90.8422 94.8499C94.6678 96.1188 99.6865 96.8554 106.257 96.9791L106.295 94.9794Z" fill="#3D3D3D"/>
<path d="M117.266 64.6208C117.526 60.4999 114.61 57.4231 109.999 57.9866" stroke="#3D3D3D" stroke-width="2" stroke-miterlimit="10" stroke-linecap="round" stroke-linejoin="round"/>
<path d="M123.935 67.3081C123.149 64.6954 120.635 63.4592 117.908 64.868" stroke="#3D3D3D" stroke-width="2" stroke-miterlimit="10" stroke-linecap="round" stroke-linejoin="round"/>
<path d="M85.0998 65.1972C74.9995 65.1972 63.3921 70.4995 63.3921 80.9136" stroke="#3D3D3D" stroke-width="2" stroke-miterlimit="10" stroke-linecap="round" stroke-linejoin="round"/>
</svg>
