<svg width="63" height="98" viewBox="0 0 63 98" fill="none" xmlns="http://www.w3.org/2000/svg">
<path d="M59.2421 39.978C59.1435 45.2199 59.0499 50.1545 58.5545 54.6248C58.0592 59.0952 57.1688 63.0254 55.5182 66.2682C53.8798 69.4871 51.4827 72.0496 47.9126 73.7933C44.3206 75.5477 39.4795 76.5029 32.9198 76.3794L32.8822 78.3791C39.6365 78.5062 44.8209 77.5291 48.7903 75.5904C52.7815 73.641 55.4815 70.7495 57.3006 67.1754C59.1076 63.6253 60.035 59.4236 60.5424 54.845C61.0497 50.2663 61.1436 45.2349 61.2418 40.0156L59.2421 39.978ZM32.9198 76.3794C26.36 76.256 21.5583 75.1194 18.0349 73.2311C14.5329 71.3544 12.2338 68.7036 10.7177 65.4253C9.19027 62.1227 8.44831 58.1618 8.12147 53.6759C7.79464 49.1902 7.88668 44.2555 7.98531 39.0136L5.98566 38.976C5.88746 44.1953 5.792 49.2267 6.12676 53.8212C6.4615 58.4156 7.23022 62.6492 8.90239 66.2648C10.5858 69.9048 13.1751 72.8958 17.0902 74.994C20.9838 77.0806 26.1278 78.252 32.8822 78.3791L32.9198 76.3794ZM7.98531 39.0136C8.17873 28.7332 11.2836 19.5239 16.0959 12.9442C20.9102 6.36166 27.3684 2.48159 34.3077 2.61215L34.3453 0.612501C26.5782 0.466367 19.5627 4.8163 14.4816 11.7635C9.39836 18.7136 6.18589 28.3339 5.98566 38.976L7.98531 39.0136ZM34.3077 2.61215C41.2469 2.74271 47.5546 6.86296 52.1179 13.622C56.6793 20.378 59.4356 29.6976 59.2421 39.978L61.2418 40.0156C61.442 29.3735 58.5937 19.6392 53.7755 12.5028C48.9593 5.36938 42.1124 0.758635 34.3453 0.612501L34.3077 2.61215Z" fill="#3D3D3D"/>
<path d="M42.9993 85.1694C48.0808 85.3067 58.4584 83.6831 59.3162 76.0908" stroke="#3D3D3D" stroke-width="2" stroke-miterlimit="10" stroke-linecap="round" stroke-linejoin="round"/>
<path d="M34.9243 5.90776C28.3668 4.13662 5.91312 16.2676 13.7337 62.6815" stroke="#3D3D3D" stroke-width="2" stroke-miterlimit="10" stroke-linecap="round" stroke-linejoin="round"/>
<path d="M41.6086 20.6579C41.8679 16.537 38.952 13.4602 34.3417 14.0237" stroke="#3D3D3D" stroke-width="2" stroke-miterlimit="10" stroke-linecap="round" stroke-linejoin="round"/>
<path d="M48.2775 23.3457C47.4911 20.733 44.9772 19.4968 42.2503 20.9056" stroke="#3D3D3D" stroke-width="2" stroke-miterlimit="10" stroke-linecap="round" stroke-linejoin="round"/>
<rect x="30.2212" y="77.064" width="6.83707" height="19.2197" transform="rotate(1.07786 30.2212 77.064)" stroke="#3D3D3D" stroke-width="2" stroke-miterlimit="10" stroke-linecap="round" stroke-linejoin="round"/>
</svg>
