<svg width="85" height="85" viewBox="0 0 85 85" fill="none" xmlns="http://www.w3.org/2000/svg">
<path d="M1.8475 29.9534C1.69354 33.0326 0.564512 38.4211 0 41.8082V52.5852C0 57.204 3.54103 64.5939 4.7727 66.1335C6.00436 67.6731 9.69935 69.6746 13.0864 74.2933C16.4735 78.912 23.7095 80.4516 26.6347 81.5293C29.5599 82.607 37.8736 86.456 55.2709 82.607C76.6622 77.8744 83.2912 52.5852 84.215 44.4255C85.1387 36.2657 81.1358 31.493 79.7502 23.7951C78.3646 16.0972 71.8984 13.172 69.7429 10.0928C67.5875 7.01368 51.8838 1.4712 42.0305 0.393498C32.1772 -0.684208 20.0145 6.2439 17.8591 7.93744C15.7037 9.63097 9.85331 13.6339 6.15832 16.2512C2.46333 18.8684 2.00145 26.8743 1.8475 29.9534Z" fill="#F0C45E"/>
<path d="M17.8298 33.9948C19.5171 32.8837 18.2176 33.7436 17.8017 34.1018C17.4988 34.3604 16.6017 35.4098 17.4853 34.3351C17.1417 34.7509 16.7783 35.1466 16.4416 35.5652C16.3524 35.6747 15.8395 36.4041 16.248 35.8017C16.7161 35.113 15.956 36.3059 15.9443 36.3248C15.7882 36.5965 15.6342 36.873 15.4952 37.1517C15.8836 36.3749 15.7187 36.8525 15.4637 37.3641C15.0838 38.1207 15.6375 36.5541 15.4338 37.4269C15.3246 37.8958 15.1681 38.3531 15.0808 38.8271C15.1795 38.2866 15.0528 39.1476 15.0439 39.2468C14.9972 39.7098 14.9366 40.1869 14.9365 40.6534C14.9307 43.4064 13.9684 46.4689 11.784 48.3001C10.1018 49.7098 7.90686 49.216 7.91329 46.7043C7.9308 37.9984 11.3527 28.4939 18.9217 23.5179C21.2236 22.004 22.0142 25.4768 21.8697 27.0025C21.6051 29.7517 20.1571 32.4676 17.838 33.9942L17.8298 33.9948Z" fill="white"/>
<path d="M27.4724 20.7853C27.5384 20.736 27.6191 20.6938 27.6888 20.6469C28.1144 20.3654 26.8891 20.9331 27.3623 20.8205C27.5164 20.7853 27.6705 20.6657 27.8099 20.6093C28.7638 20.2223 29.7396 19.8938 30.8035 19.6381C35.0005 18.6293 40.3642 18.6692 45.0638 18.9507C47.4374 19.0938 48.0317 16.1801 47.9987 15.1972C47.9584 14.0077 47.5401 11.5914 45.0638 11.4436C39.7698 11.1245 34.2778 11.1902 29.2407 12.3984C27.5494 12.8042 25.7151 13.4142 24.5044 14.301C22.7471 15.5866 22.7214 17.888 23.4515 19.4364C23.9724 20.5437 25.6857 22.085 27.4687 20.783L27.4724 20.7853Z" fill="white"/>
<path d="M27.1548 32.8383C25.4334 36.4494 23.9712 40.1299 23.3863 44.0991C22.6755 48.909 23.1013 53.8103 23.4307 58.6311C23.5381 60.1991 24.8485 63.8358 27.0733 62.7173C29.2981 61.5989 29.2833 57.5785 29.1427 55.5244C29.1871 56.186 29.0797 54.4535 29.0834 54.4864C29.0612 54.0954 29.039 53.7043 29.0205 53.3132C28.9761 52.3556 28.9391 51.4017 28.9317 50.4441C28.9243 49.7021 29.002 48.9419 28.9687 48.2036C28.9354 47.4653 28.8243 49.4317 28.9613 48.3462C29.0094 47.966 29.0427 47.5896 29.0982 47.2095C29.1427 46.9061 29.2093 46.6028 29.2537 46.2994C29.3463 45.6342 28.9206 47.4105 29.2352 46.4529C29.4277 45.8681 29.5721 45.2687 29.772 44.6839C29.8275 44.5268 30.3087 43.3279 29.8645 44.3988C29.9978 44.0736 30.1348 43.7519 30.2717 43.4303C30.6123 42.6481 30.9751 41.8769 31.3416 41.1058C32.5076 38.6606 32.6187 35.2688 31.3416 32.8346C30.268 30.7879 28.2098 30.6234 27.1548 32.8346V32.8383Z" fill="white"/>
<path d="M42.5491 31.9729C45.1756 29.0298 48.4478 26.2551 52.1383 24.2549C54.4372 23.0095 57.8323 22.5417 60.3576 23.2921C62.5129 23.9334 62.8335 25.5705 60.7562 26.6954C57.668 28.3688 55.0627 30.7695 52.8688 33.2258C51.3066 34.9766 47.2995 35.3118 45.0195 35.0206C43.0236 34.7664 40.964 33.7478 42.5488 31.9699L42.5491 31.9729Z" fill="white"/>
<path d="M68.5618 43.5668C68.3425 43.9467 68.0879 44.3061 67.8622 44.6823C67.5634 45.185 68.8389 43.309 68.1524 44.2463C68.0148 44.4327 67.8851 44.6279 67.7507 44.8162C67.3604 45.359 66.9554 45.8975 66.5381 46.4204C66.3534 46.6515 66.1656 46.8806 65.9777 47.1098C65.9813 47.1034 65.057 48.1566 65.532 47.6374C66.007 47.1182 64.9961 48.1806 65.0135 48.1653C64.7808 48.3981 64.543 48.6322 64.3025 48.8563C63.9975 49.1402 63.6861 49.4205 63.3656 49.687C62.6983 50.2429 64.2492 49.1336 62.9763 49.9687C62.2884 50.4198 61.6032 50.8514 60.8681 51.2288C58.5543 52.4083 56.8338 55.8843 56.7326 58.3918C56.6313 60.8993 58.2962 61.5398 60.3584 60.4852C66.0121 57.6003 70.5557 51.9222 73.6912 46.5283C74.5492 45.057 76.1727 41.2085 74.0504 39.9832C71.9281 38.7578 69.3618 42.1886 68.5618 43.5668Z" fill="white"/>
<path d="M42.5049 53.1612C42.8602 53.5962 43.1601 54.064 43.497 54.5099C43.993 55.1605 43.0342 53.7168 43.534 54.5611C43.6746 54.8023 43.8264 55.0362 43.9708 55.2738C44.3558 55.9244 44.7149 56.5896 45.048 57.2694C45.1961 57.5764 45.3331 57.8907 45.4774 58.2014C45.9587 59.2065 45.3294 57.6129 45.6403 58.6071C45.7699 59.0237 45.8957 59.4477 46.029 59.8607C46.451 61.1473 45.9661 58.8447 46.1031 60.197C46.1364 60.5223 46.1438 61.9002 46.1586 60.4126C46.1475 61.6699 46.2696 59.2723 46.1586 60.6392C46.0845 61.5895 45.9402 60.2847 46.1068 60.7818C45.9994 61.1071 46.0179 61.0742 46.1586 60.6794C46.0253 60.9682 45.8772 61.2496 45.7144 61.5237C44.4224 63.8446 44.4927 67.463 45.7144 69.7948C46.8471 71.9585 48.7425 71.8781 49.9011 69.7948C54.6099 61.3373 51.3115 50.1934 45.496 43.0663C43.7931 40.9794 41.9422 43.5268 41.4424 45.1643C40.6947 47.6204 40.7983 51.0779 42.5049 53.1649V53.1612Z" fill="white"/>
<path d="M14.8806 49.8497C16.5818 50.551 17.3995 52.4811 16.7071 54.1607C16.0146 55.8402 14.0743 56.6333 12.3731 55.932C10.672 55.2306 9.85429 53.3005 10.5467 51.621C11.2392 49.9414 13.1795 49.1484 14.8806 49.8497Z" fill="white"/>
<path d="M60.5651 20.8591C62.4051 20.8591 63.8967 19.3864 63.8967 17.5697C63.8967 15.753 62.4051 14.2803 60.5651 14.2803C58.725 14.2803 57.2334 15.753 57.2334 17.5697C57.2334 19.3864 58.725 20.8591 60.5651 20.8591Z" fill="white"/>
<path d="M35.9097 31.8591C37.7497 31.8591 39.2413 30.3864 39.2413 28.5697C39.2413 26.753 37.7497 25.2803 35.9097 25.2803C34.0696 25.2803 32.578 26.753 32.578 28.5697C32.578 30.3864 34.0696 31.8591 35.9097 31.8591Z" fill="white"/>
<path d="M58.3317 45.8591C60.1717 45.8591 61.6633 44.3864 61.6633 42.5697C61.6633 40.753 60.1717 39.2803 58.3317 39.2803C56.4916 39.2803 55 40.753 55 42.5697C55 44.3864 56.4916 45.8591 58.3317 45.8591Z" fill="white"/>
<path d="M35.3317 70.8591C37.1717 70.8591 38.6633 69.3864 38.6633 67.5697C38.6633 65.753 37.1717 64.2803 35.3317 64.2803C33.4916 64.2803 32 65.753 32 67.5697C32 69.3864 33.4916 70.8591 35.3317 70.8591Z" fill="white"/>
</svg>
