<svg width="139" height="102" viewBox="0 0 139 102" fill="none" xmlns="http://www.w3.org/2000/svg">
<rect y="40.5823" width="124" height="65" rx="30" transform="rotate(-19.1037 0 40.5823)" fill="#EAD966"/>
<path d="M45.2403 70.8342C43.741 71.3535 42.2217 71.6723 40.6823 71.7906C39.1429 71.9089 37.8253 71.8121 36.7296 71.5003L37.1114 67.0417C38.1298 67.3014 39.2439 67.4094 40.4535 67.3658C41.6632 67.3221 42.7972 67.1171 43.8555 66.7505C45.8663 66.054 46.6976 65.2031 46.3494 64.1977C46.1661 63.6686 45.7407 63.3813 45.0731 63.336C44.417 63.2669 43.4051 63.3112 42.0374 63.4688C40.54 63.6516 39.2659 63.7373 38.215 63.7259C37.158 63.697 36.163 63.4193 35.23 62.893C34.297 62.3667 33.6076 61.4597 33.1616 60.1721C32.7706 59.0432 32.728 57.9221 33.0338 56.8087C33.3335 55.6777 34.0002 54.6368 35.034 53.6861C36.0854 52.7293 37.5019 51.9424 39.2834 51.3254C40.5005 50.9038 41.7488 50.6295 43.0283 50.5024C44.3017 50.3577 45.4799 50.3941 46.5627 50.6117L46.2959 55.06C44.2021 54.7184 42.3262 54.8348 40.6682 55.4091C39.6275 55.7695 38.924 56.1909 38.5577 56.6734C38.1853 57.1382 38.0847 57.6175 38.2557 58.1114C38.4268 58.6053 38.8373 58.878 39.4873 58.9294C40.1372 58.9809 41.1342 58.922 42.4782 58.7528C43.9931 58.5639 45.2703 58.487 46.3097 58.5221C47.3606 58.5335 48.3526 58.8023 49.2855 59.3286C50.23 59.8312 50.9253 60.7263 51.3712 62.0139C51.7561 63.1251 51.7957 64.2375 51.4899 65.3508C51.1841 66.4642 50.5085 67.5082 49.4632 68.4826C48.4118 69.4394 47.0041 70.2233 45.2403 70.8342ZM62.8409 64.59C61.3063 65.1215 59.8117 65.2836 58.3571 65.0762C56.9025 64.8689 55.6269 64.323 54.5303 63.4384C53.4514 62.5478 52.6646 61.3882 52.1697 59.9594C51.681 58.5483 51.5851 57.1592 51.882 55.7921C52.1966 54.4189 52.8555 53.2128 53.8587 52.1739C54.8735 51.1113 56.157 50.3111 57.7092 49.7735C59.2614 49.2359 60.7648 49.0708 62.2194 49.2781C63.6679 49.4678 64.9317 50.008 66.0106 50.8986C67.0833 51.7716 67.8672 52.9224 68.362 54.3512C68.8569 55.7799 68.9558 57.1778 68.6589 58.545C68.362 59.9121 67.7061 61.127 66.6914 62.1896C65.6766 63.2523 64.3931 64.0524 62.8409 64.59ZM61.4572 60.5948C62.3391 60.2894 62.9584 59.739 63.3151 58.9438C63.6658 58.131 63.6547 57.1866 63.2821 56.1106C62.9155 55.0523 62.3462 54.321 61.574 53.9168C60.8019 53.5126 59.9748 53.4632 59.0929 53.7687C58.211 54.0741 57.5916 54.6245 57.2349 55.4197C56.8782 56.2149 56.8831 57.1417 57.2497 58.2C57.6223 59.2759 58.1978 60.0248 58.976 60.4467C59.7482 60.8509 60.5752 60.9003 61.4572 60.5948ZM80.5285 58.4638C78.9939 58.9953 77.4993 59.1574 76.0447 58.9501C74.59 58.7427 73.3144 58.1968 72.2179 57.3123C71.139 56.4217 70.3521 55.262 69.8573 53.8333C69.3686 52.4222 69.2726 51.0331 69.5696 49.6659C69.8841 48.2927 70.543 47.0866 71.5463 46.0477C72.561 44.9851 73.8445 44.185 75.3967 43.6474C76.9489 43.1098 78.4524 42.9446 79.907 43.152C81.3555 43.3417 82.6192 43.8819 83.6981 44.7725C84.7709 45.6454 85.5547 46.7963 86.0496 48.225C86.5444 49.6538 86.6434 51.0517 86.3465 52.4188C86.0496 53.786 85.3937 55.0008 84.3789 56.0635C83.3642 57.1261 82.0807 57.9262 80.5285 58.4638ZM79.1447 54.4687C80.0267 54.1632 80.646 53.6129 81.0027 52.8177C81.3533 52.0048 81.3423 51.0604 80.9696 49.9845C80.6031 48.9262 80.0337 48.1949 79.2616 47.7907C78.4894 47.3865 77.6624 47.3371 76.7805 47.6425C75.8985 47.948 75.2792 48.4983 74.9225 49.2935C74.5658 50.0887 74.5707 51.0155 74.9372 52.0738C75.3099 53.1498 75.8853 53.8987 76.6636 54.3206C77.4358 54.7248 78.2628 54.7742 79.1447 54.4687ZM95.2274 36.779C97.0089 36.1619 98.6209 36.1962 100.063 36.8819C101.524 37.5614 102.623 38.9684 103.362 41.1026L106.203 49.3046L101.176 51.0457L98.6195 43.664C97.9414 41.7061 96.8174 40.999 95.2476 41.5427C94.3833 41.8421 93.7843 42.3656 93.4506 43.1133C93.1346 43.8549 93.1721 44.7901 93.5631 45.919L95.964 52.851L90.937 54.5921L85.9702 40.2519L90.7591 38.5933L91.2998 40.1543C91.6626 39.3767 92.1801 38.7036 92.8524 38.1349C93.5185 37.5486 94.3102 37.0966 95.2274 36.779Z" fill="#080807"/>
</svg>
